<?xml version="1.0" encoding="UTF-8"?>
<svg width="53px" height="55px" viewBox="0 0 53 55" version="1.1" xmlns="http://www.w3.org/2000/svg" xmlns:xlink="http://www.w3.org/1999/xlink">
    <title>Genius Icon</title>
    <g id="Page-1" stroke="none" stroke-width="1" fill="none" fill-rule="evenodd">
        <g id="Desktop" transform="translate(-621.000000, -1052.000000)" fill="#000000" fill-rule="nonzero">
            <g id="Copy-Area" transform="translate(80.000000, 966.000000)">
                <g id="Features" transform="translate(538.000000, 86.000000)">
                    <g id="Group" transform="translate(3.000000, 0.000000)">
                        <path d="M23.353125,2.695 C18.55,4.84 14.90625,8.525 12.4770833,13.64 C12.090625,14.41 12.0354167,15.455 11.925,16.5 C11.8145833,17.545 11.7041667,18.645 11.3177083,19.305 C10.7104167,20.35 8.28125,21.56 6.34895833,22.55 C3.91979167,23.76 2.37395833,24.585 1.9875,25.52 C1.10416667,27.775 2.92604167,28.93 3.91979167,29.59 C4.140625,29.755 4.471875,29.92 4.58229167,30.085 C4.41666667,30.47 4.08541667,30.8 3.64375,31.185 C2.92604167,31.79 1.9875,32.56 2.20833333,34.045 C2.26354167,34.21 2.26354167,34.375 2.37395833,34.54 C2.37395833,34.54 2.37395833,34.54 2.37395833,34.54 C2.42916667,34.65 2.37395833,34.815 2.26354167,34.925 C1.21458333,35.75 1.159375,37.29 2.153125,39.105 C2.20833333,39.16 2.20833333,39.27 2.20833333,39.325 C2.09791667,39.82 1.76666667,40.26 1.490625,40.7 C0.883333333,41.635 0.110416667,42.735 0.552083333,44.66 C1.10416667,46.97 5.02395833,48.565 12.5322917,49.445 C12.6427083,49.445 12.753125,49.555 12.753125,49.61 C12.8083333,49.665 12.8083333,49.775 12.8083333,49.885 C12.5322917,51.205 11.925,53.24 11.759375,53.68 C11.6489583,54.01 11.8145833,54.395 12.2010417,54.505 C12.25625,54.505 12.3666667,54.56 12.421875,54.56 C12.6979167,54.56 12.9739583,54.395 13.0291667,54.12 C13.1947917,53.68 13.8020833,51.535 14.078125,50.16 C14.1885417,49.72 14.078125,49.225 13.8020833,48.84 C13.5260417,48.455 13.084375,48.235 12.6427083,48.18 C3.42291667,47.08 1.9875,45.155 1.821875,44.385 C1.490625,43.01 1.9875,42.295 2.53958333,41.415 C2.92604167,40.865 3.25729167,40.315 3.478125,39.6 C3.58854167,39.215 3.53333333,38.83 3.3125,38.445 C3.09166667,38.005 2.37395833,36.465 3.09166667,35.915 C3.69895833,35.42 3.91979167,34.54 3.53333333,33.88 C3.53333333,33.88 3.53333333,33.825 3.53333333,33.77 C3.42291667,33.055 3.75416667,32.725 4.471875,32.12 C5.02395833,31.625 5.68645833,31.075 5.90729167,30.195 C6.07291667,29.37 5.35520833,28.93 4.6375,28.435 C3.42291667,27.665 2.76041667,27.115 3.20208333,26.015 C3.42291667,25.52 5.41041667,24.475 6.90104167,23.705 C9.21979167,22.55 11.6489583,21.285 12.421875,19.965 C12.91875,19.085 13.084375,17.82 13.1947917,16.665 C13.3052083,15.785 13.3604167,14.85 13.6364583,14.245 C15.9,9.46 19.378125,5.94 23.85,3.905 C24.18125,3.74 24.346875,3.355 24.18125,3.025 C24.1260417,2.695 23.7395833,2.53 23.353125,2.695 Z" id="Path"></path>
                        <path d="M50.6260417,29.205 C50.2947917,29.15 49.9083333,29.37 49.853125,29.7 C49.4666667,31.625 48.4177083,34.485 45.9885417,37.07 C44.4979167,38.61 42.73125,39.82 40.74375,40.645 C40.246875,40.865 39.915625,41.25 39.75,41.745 L36.5479167,53.68 C36.4375,54.065 36.603125,54.45 36.9895833,54.56 C37.0447917,54.56 37.1,54.56 37.1552083,54.56 C37.43125,54.56 37.7072917,54.34 37.8177083,54.065 L41.0197917,42.13 C41.075,42.02 41.1302083,41.965 41.240625,41.91 C43.4489583,41.03 45.3260417,39.71 46.9822917,38.005 C49.6322917,35.2 50.7364583,32.12 51.178125,29.975 C51.2333333,29.645 50.9572917,29.315 50.6260417,29.205 Z" id="Path"></path>
                        <path d="M48.5833333,14.905 C50.846875,12.595 52.2270833,10.34 52.503125,8.58 C52.66875,7.535 52.3927083,6.71 51.7854167,5.995 C51.0677083,5.17 49.853125,4.785 48.2520833,4.785 C46.9822917,4.785 45.4916667,5.06 43.8354167,5.555 C42.565625,2.31 40.6333333,0.44 38.5354167,0.44 C36.4375,0.44 34.5052083,2.31 33.2354167,5.555 C31.5791667,5.06 30.0885417,4.785 28.81875,4.785 C27.2177083,4.785 26.003125,5.225 25.2854167,5.995 C24.678125,6.655 24.4572917,7.535 24.5677083,8.58 C24.7885417,10.34 26.16875,12.595 28.4875,14.905 C26.2239583,17.215 24.7885417,19.47 24.5677083,21.23 C24.4020833,22.275 24.678125,23.1 25.2854167,23.76 C26.003125,24.585 27.2177083,24.97 28.81875,24.97 C30.0885417,24.97 31.5791667,24.695 33.2354167,24.2 C34.5052083,27.445 36.4375,29.315 38.5354167,29.315 C40.6333333,29.315 42.565625,27.445 43.8354167,24.2 C45.4916667,24.695 46.9822917,24.97 48.2520833,24.97 C49.853125,24.97 51.0677083,24.53 51.7854167,23.76 C52.3927083,23.1 52.6135417,22.22 52.503125,21.23 C52.2822917,19.47 50.9020833,17.215 48.5833333,14.905 Z M26.8864583,22.55 C26.6104167,22.22 26.5,21.78 26.5552083,21.175 C26.7760417,19.745 27.9354167,17.875 29.9229167,15.895 C30.5854167,16.5 31.303125,17.105 32.0760417,17.71 C32.2416667,19.47 32.5729167,21.12 33.0145833,22.605 C29.978125,23.485 27.659375,23.43 26.8864583,22.55 Z M31.9104167,15.73 C31.5791667,15.455 31.2479167,15.18 30.971875,14.905 C31.303125,14.63 31.5791667,14.355 31.9104167,14.08 C31.9104167,14.355 31.9104167,14.63 31.9104167,14.905 C31.8552083,15.18 31.9104167,15.455 31.9104167,15.73 Z M32.0208333,12.1 C31.2479167,12.705 30.5302083,13.31 29.8677083,13.915 C27.8802083,11.935 26.7208333,10.01 26.5,8.635 C26.4447917,8.03 26.5552083,7.59 26.83125,7.26 C27.2177083,6.82 28.0458333,6.545 29.15,6.545 C30.1989583,6.545 31.46875,6.765 32.9041667,7.205 C32.4625,8.69 32.1864583,10.34 32.0208333,12.1 Z M43.4489583,10.89 C43.1729167,10.67 42.896875,10.505 42.6208333,10.285 C41.8479167,9.79 41.075,9.295 40.1364583,8.8 C41.0197917,8.36 41.903125,8.03 42.7864583,7.7 C43.0625,8.69 43.2833333,9.735 43.4489583,10.89 Z M38.5354167,2.365 C39.915625,2.365 41.240625,3.795 42.234375,6.325 C41.0197917,6.765 39.75,7.315 38.5354167,7.92 C37.265625,7.26 36.0510417,6.765 34.8364583,6.325 C35.8302083,3.795 37.1552083,2.365 38.5354167,2.365 Z M34.3395833,7.7 C35.2229167,8.03 36.10625,8.36 36.9895833,8.8 C36.0510417,9.295 35.278125,9.79 34.5052083,10.285 C34.2291667,10.505 33.953125,10.67 33.6770833,10.89 C33.8427083,9.735 34.0635417,8.69 34.3395833,7.7 Z M33.6770833,18.92 C33.953125,19.14 34.2291667,19.305 34.5052083,19.47 C35.278125,19.965 36.0510417,20.46 36.9895833,21.01 C36.10625,21.45 35.2229167,21.78 34.3395833,22.11 C34.0635417,21.12 33.8427083,20.02 33.6770833,18.92 Z M38.5354167,27.445 C37.1552083,27.445 35.8302083,26.015 34.8364583,23.485 C36.0510417,23.045 37.3208333,22.495 38.5354167,21.89 C39.8052083,22.495 41.0197917,23.045 42.234375,23.485 C41.2958333,26.015 39.915625,27.445 38.5354167,27.445 Z M42.73125,22.11 C41.8479167,21.78 41.0197917,21.45 40.08125,21.01 C41.0197917,20.515 41.7927083,20.02 42.565625,19.525 C42.8416667,19.305 43.1177083,19.14 43.39375,18.92 C43.2833333,20.02 43.0625,21.12 42.73125,22.11 Z M43.6697917,16.995 C43.0625,17.49 42.4,17.93 41.7927083,18.315 C40.74375,18.975 39.6947917,19.635 38.590625,20.24 C37.4864583,19.635 36.3822917,19.03 35.3885417,18.315 C34.78125,17.875 34.11875,17.435 33.5114583,16.995 C33.45625,16.28 33.45625,15.565 33.45625,14.905 C33.45625,14.245 33.45625,13.585 33.5114583,12.815 C34.1739583,12.32 34.78125,11.88 35.3885417,11.495 C36.3822917,10.835 37.4864583,10.175 38.590625,9.57 C39.6947917,10.175 40.74375,10.78 41.7927083,11.495 C42.4,11.935 43.0625,12.375 43.6697917,12.815 C43.725,13.53 43.725,14.245 43.725,14.905 C43.725,15.565 43.725,16.225 43.6697917,16.995 Z M50.2395833,7.26 C50.515625,7.59 50.6260417,8.03 50.5708333,8.635 C50.4052083,10.01 49.190625,11.88 47.203125,13.915 C46.540625,13.31 45.8229167,12.705 45.05,12.1 C44.884375,10.34 44.553125,8.69 44.1114583,7.205 C47.1479167,6.325 49.4114583,6.38 50.2395833,7.26 Z M45.215625,14.025 C45.546875,14.3 45.878125,14.575 46.1541667,14.85 C45.8229167,15.125 45.546875,15.4 45.215625,15.675 C45.215625,15.4 45.215625,15.125 45.215625,14.85 C45.215625,14.63 45.215625,14.355 45.215625,14.025 Z M50.2395833,22.55 C49.4114583,23.43 47.1479167,23.485 44.1666667,22.605 C44.6083333,21.12 44.9395833,19.47 45.1052083,17.71 C45.878125,17.105 46.5958333,16.5 47.2583333,15.895 C49.2458333,17.875 50.4052083,19.745 50.6260417,21.175 C50.6260417,21.78 50.515625,22.22 50.2395833,22.55 Z" id="Shape"></path>
                        <ellipse id="Oval" cx="38.5354167" cy="14.905" rx="3.03645833" ry="3.025"></ellipse>
                    </g>
                </g>
            </g>
        </g>
    </g>
</svg>