<?xml version="1.0" encoding="UTF-8"?>
<svg width="74px" height="52px" viewBox="0 0 74 52" version="1.1" xmlns="http://www.w3.org/2000/svg" xmlns:xlink="http://www.w3.org/1999/xlink">
    <title>Tactician Icon</title>
    <g id="Page-1" stroke="none" stroke-width="1" fill="none" fill-rule="evenodd">
        <g id="Desktop" transform="translate(-1059.000000, -1290.000000)" fill="#000000" fill-rule="nonzero">
            <g id="Copy-Area" transform="translate(80.000000, 966.000000)">
                <g id="Features" transform="translate(538.000000, 86.000000)">
                    <g id="Tactician-Icon" transform="translate(441.000000, 238.000000)">
                        <circle id="Oval" cx="10" cy="4" r="4"></circle>
                        <path d="M12.7736028,9.93609856 C10.6752914,8.68927747 8.27053284,8.68806931 6.17769367,9.93187 C1.90810717,12.4708182 -0.382341746,19.4672725 0.0523996871,28.6468719 C0.0937457255,29.523392 0.842230626,30.1999616 1.72448212,30.1594882 C2.60673362,30.1196189 3.28833522,29.3747883 3.24698918,28.4982683 C3.04573126,24.2298391 3.46587997,20.4458821 4.46304913,17.5565675 C4.58343907,17.2062011 4.71294945,16.8697286 4.85097226,16.547754 L4.85097226,30.0453171 L4.86495695,30.0453171 L4.86495695,50.0615073 C4.86495695,51.1246881 5.73322375,51.9873143 6.80335651,51.9873143 C7.87470533,51.9873143 8.7423641,51.124084 8.7423641,50.0615073 L8.7423641,30.0453171 L10.1681944,30.0453171 L10.1681944,50.074193 C10.1681944,51.1373738 11.0364612,52 12.107202,52 C13.1773347,52 14.0456016,51.1373738 14.0456016,50.074193 L14.0456016,30.0453171 L14.0583702,30.0453171 L14.0583702,16.411836 C14.2231463,16.7827411 14.3763699,17.1735808 14.5198649,17.582543 C15.5267626,20.475482 15.9523836,24.2509819 15.7535578,28.5012887 C15.7122117,29.3772046 16.3938133,30.1226393 17.2760648,30.1613005 C17.3022101,30.1625086 17.3265313,30.1637168 17.3520686,30.1637168 C18.2014864,30.1637168 18.9086253,29.4998329 18.9487553,28.6492883 C19.3798485,19.4866031 17.0711587,12.4913569 12.7736028,9.93609856 Z" id="Path"></path>
                        <path d="M70.8154184,20.2889322 C73.9882172,32.8821996 66.2436379,45.6879154 53.5590933,48.8374326 C40.8715258,51.9869497 27.9699394,44.3034002 24.7989544,31.7137336 C23.5831583,26.8856342 23.9241374,21.8942977 25.7868266,17.275046 C25.9821037,16.7883351 26.0123323,16.2620153 25.8889994,15.7693031 C25.8067775,15.4392279 25.653216,15.1253565 25.4355697,14.8498938 L21.6249465,10.0337972 L28.2661802,10.819376 C29.0539387,10.9123972 29.8392789,10.6249318 30.3755351,10.0445996 C33.5132686,6.66222946 37.5524204,4.28208752 42.0552796,3.16463308 C54.7422425,0.0133155355 67.645038,7.69506463 70.8154184,20.2889322 L70.8154184,20.2889322 Z M73.2119455,19.6935966 C69.704818,5.76562531 55.4858672,-2.69990225 41.4555432,0.782690719 C36.3051864,2.06218205 31.9014772,4.77599998 28.5569798,8.38342137 L16,6.89688289 L23.4918678,16.3646387 C21.5143097,21.2635541 21.0131187,26.7986144 22.4006136,32.3072687 C25.9071366,46.2334396 40.1254828,54.6995673 54.1582251,51.2175745 C68.1885491,47.7355817 76.7196777,33.6197676 73.2119455,19.6935966 L73.2119455,19.6935966 Z" id="Shape"></path>
                        <path d="M36,15 L36,37 L58,37 L58,15 L36,15 Z M57.242994,20.8665066 L52.1804786,20.8665066 L52.1804786,25.9993997 L57.242994,25.9993997 L57.242994,31.1328931 L52.1804786,31.1328931 L52.1804786,36.2435737 L47.0231124,36.2435737 L47.0231124,31.1328931 L41.9125713,31.1328931 L41.9125713,36.2435737 L36.7564057,36.2435737 L36.7564057,31.1328931 L41.9125713,31.1328931 L41.9125713,26.0702396 L36.7564057,26.0702396 L36.7564057,20.9139333 L41.9125713,20.9139333 L41.9125713,26.0702396 L47.0231124,26.0702396 L47.0231124,31.1328931 L52.1804786,31.1328931 L52.1804786,25.9993997 L47.0231124,25.9993997 L47.0231124,20.8665066 L41.9125713,20.8665066 L41.9125713,15.7570267 L47.0231124,15.7570267 L47.0231124,20.8665066 L52.1804786,20.8665066 L52.1804786,15.7570267 L57.242994,15.7570267 L57.242994,20.8665066 L57.242994,20.8665066 Z" id="Shape"></path>
                    </g>
                </g>
            </g>
        </g>
    </g>
</svg>