<?xml version="1.0" encoding="UTF-8"?>
<svg width="44px" height="52px" viewBox="0 0 44 52" version="1.1" xmlns="http://www.w3.org/2000/svg" xmlns:xlink="http://www.w3.org/1999/xlink">
    <title>Businessman Icon</title>
    <g id="Page-1" stroke="none" stroke-width="1" fill="none" fill-rule="evenodd">
        <g id="Desktop" transform="translate(-621.000000, -1290.000000)" fill="#000000" fill-rule="nonzero">
            <g id="Copy-Area" transform="translate(80.000000, 966.000000)">
                <g id="Features" transform="translate(538.000000, 86.000000)">
                    <g id="Businessman-Icon" transform="translate(3.000000, 238.000000)">
                        <ellipse id="Oval" cx="27" cy="4.5" rx="4" ry="4.5"></ellipse>
                        <path d="M41.9204738,22.2775884 C40.6952727,22.0701499 35.5813895,21.0329574 35.3150414,20.9292382 C35.1552326,20.8773786 35.1552326,20.8773786 35.101963,20.7736593 C34.9954237,20.6180804 30.3609671,12.6835581 29.9348102,12.2168215 C29.1890356,11.179629 28.1769129,10.3498751 26.6853636,10.1424366 C25.0872751,9.67569997 23.435917,10.5054539 23.435917,10.5054539 C23.435917,10.5054539 15.392205,14.8616623 14.9127784,15.17282 C14.3800823,15.4321181 13.9539253,16.3655914 13.9539253,16.3655914 L9.21292949,23.2629212 C8.78677256,23.7815175 8.62696372,24.4556926 8.84004218,25.1817273 C9.05312065,25.9596216 9.74562566,26.5300775 10.5979395,26.6856564 C11.7698711,26.8930949 12.7819938,26.0633409 13.2614203,25.078008 L17.7893377,18.6474148 L20.0266616,17.6620819 C19.8668527,18.1288185 18.0556858,27.7228488 18.0556858,27.7228488 L16.2445188,39.0801063 L8.78677256,47.2739267 C8.20080679,47.8443826 7.88118909,48.6741366 8.04099794,49.5557502 C8.20080679,50.6448023 9.05312065,51.4226966 10.1717826,51.5782755 C11.2371749,51.7338543 12.196028,51.2671177 12.8352634,50.541083 C14.1137342,49.0371539 20.9855147,41.6212278 21.5714805,40.8951931 C22.2639855,40.0654391 22.4237943,39.6505621 22.5303335,39.1319659 C22.6368728,38.6133697 23.6489955,31.6641802 23.6489955,31.6641802 L30.520776,38.0947735 L31.7992468,49.711329 L31.7992468,49.711329 C31.9590556,51.0078196 33.2375264,52.0968717 34.6225364,51.9931525 C35.9542768,51.8894332 36.9663995,50.95596 37.0729388,49.6594694 C37.0729388,49.6594694 37.0729388,49.3483117 37.0729388,49.3483117 C37.0196691,47.5850845 35.794468,38.7689486 35.794468,36.7982829 C35.8477376,34.5683191 34.9954237,34.1015825 34.8356149,33.894144 C34.6225364,33.6348459 28.1769129,27.2561122 28.1769129,27.2561122 L29.402114,19.8401861 C29.402114,19.8401861 31.5861683,23.2629212 31.7992468,23.6259386 C32.0123252,23.988956 32.598291,24.6631311 33.1842568,24.8187099 C33.7702226,24.9224292 41.4943169,26.4782179 41.4943169,26.4782179 C41.4943169,26.4782179 41.7073954,26.4782179 41.8139346,26.4782179 C43.0391358,26.4782179 44.0512585,25.5447446 43.9979889,24.3519733 C43.9979889,23.2629212 43.0924054,22.329448 41.9204738,22.2775884 Z" id="Path"></path>
                        <path d="M7.99303264,37.6233059 L0.989539277,32.9079005 C-0.00349336375,32.2267864 -0.317082619,30.8121648 0.362360767,29.8166903 L2.92333968,25.9919725 C3.60278307,24.996498 5.01393472,24.6821377 6.00696736,25.3632518 L13.0104607,30.0786572 C14.0034934,30.7597714 14.3170826,32.174393 13.6376392,33.1698675 L11.0766603,36.9945852 C10.3972169,38.0424531 8.98606528,38.3044201 7.99303264,37.6233059 Z" id="Path"></path>
                    </g>
                </g>
            </g>
        </g>
    </g>
</svg>