<?xml version="1.0" encoding="UTF-8"?>
<svg width="53px" height="52px" viewBox="0 0 53 52" version="1.1" xmlns="http://www.w3.org/2000/svg" xmlns:xlink="http://www.w3.org/1999/xlink">
    <title>Engineer Icon</title>
    <g id="Page-1" stroke="none" stroke-width="1" fill="none" fill-rule="evenodd">
        <g id="Desktop" transform="translate(-1059.000000, -1055.000000)" fill="#000000" fill-rule="nonzero">
            <g id="Copy-Area" transform="translate(80.000000, 966.000000)">
                <g id="Features" transform="translate(538.000000, 86.000000)">
                    <g id="Group" transform="translate(441.000000, 3.000000)">
                        <path d="M25.2089744,29.6666667 L30.2371795,24.7333333 C31.1884615,23.8 31.1884615,22.3333333 30.2371795,21.4 L9.58076923,1.13333333 C8.62948718,0.2 7.13461538,0.2 6.18333333,1.13333333 L1.15512821,6.06666667 C0.203846154,7 0.203846154,8.46666667 1.15512821,9.4 L21.8794872,29.7333333 C22.7628205,30.6 24.325641,30.6 25.2089744,29.6666667 Z M8.6974359,3.66666667 L26.975641,21.6 L25.4807692,23.0666667 L7.2025641,5.13333333 L8.6974359,3.66666667 Z M5.23205128,7.06666667 L23.5102564,25 L22.0153846,26.4666667 L3.73717949,8.53333333 L5.23205128,7.06666667 Z" id="Shape"></path>
                        <polygon id="Path" points="46.5448718 42.4666667 45.9333333 43 29.6935897 27.0666667 27.5871795 29.1333333 43.8269231 45.0666667 43.2833333 45.6666667 49.3307692 51.5333333 52.524359 48.4"></polygon>
                        <path d="M26.3641026,30.8 C25.4807692,31.6666667 24.325641,32.0666667 23.1025641,31.9333333 C22.1512821,31.8 21.2679487,31.3333333 20.5884615,30.6666667 L18.3461538,28.4 C18.2782051,28.3333333 18.1423077,28.3333333 18.074359,28.4 L16.5794872,29.8666667 L14.9487179,31.4666667 C14.8807692,31.5333333 14.8128205,31.5333333 14.7448718,31.5333333 C11.2115385,30.2666667 7.06666667,31.0666667 4.21282051,33.8666667 C1.63076923,36.4 0.747435897,40 1.56282051,43.2666667 C1.63076923,43.4 1.76666667,43.4666667 1.9025641,43.3333333 L6.38717949,38.9333333 C7.40641026,37.9333333 9.03717949,37.9333333 9.98846154,38.9333333 L13.3179487,42.2 C14.3371795,43.2 14.3371795,44.8 13.3179487,45.7333333 L8.83333333,50.1333333 C8.6974359,50.2666667 8.76538462,50.4 8.90128205,50.4666667 C12.2307692,51.2666667 15.9,50.4 18.4820513,47.8666667 C21.3358974,45.0666667 22.0833333,41 20.8602564,37.5333333 C20.8602564,37.4666667 20.8602564,37.4 20.9282051,37.3333333 L22.4910256,35.8 L27.3153846,31.0666667 L26.7038462,30.4666667 L26.3641026,30.8 Z" id="Path"></path>
                        <path d="M31.2564103,20.2 C32.8871795,21.8 32.8871795,24.4 31.2564103,25.9333333 L31.0525641,26.1333333 L31.6641026,26.7333333 L36.4884615,22 L38.0512821,20.4666667 C38.1192308,20.4 38.1871795,20.4 38.2551282,20.4 C41.7884615,21.6666667 45.9333333,20.8666667 48.7871795,18.0666667 C51.3692308,15.5333333 52.2525641,11.9333333 51.4371795,8.66666667 C51.3692308,8.53333333 51.2333333,8.46666667 51.0974359,8.6 L46.6128205,13 C45.5935897,14 43.9628205,14 43.0115385,13 L39.6820513,9.73333333 C38.6628205,8.73333333 38.6628205,7.13333333 39.6820513,6.2 L44.1666667,1.8 C44.3025641,1.66666667 44.2346154,1.53333333 44.0987179,1.46666667 C40.7692308,0.666666667 37.1,1.53333333 34.5179487,4.06666667 C31.6641026,6.86666667 30.9166667,10.9333333 32.1397436,14.4 C32.1397436,14.4666667 32.1397436,14.5333333 32.0717949,14.6 L30.5089744,16.1333333 L29.0141026,17.6 C28.9461538,17.6666667 28.9461538,17.8 29.0141026,17.8666667 L31.2564103,20.2 Z" id="Path"></path>
                    </g>
                </g>
            </g>
        </g>
    </g>
</svg>